<?xml version="1.0" encoding="utf-8"?>
<svg viewBox="38 37 426 426" xmlns="http://www.w3.org/2000/svg" xmlns:bx="https://boxy-svg.com">
  <path style="paint-order: stroke; fill: rgb(41, 55, 240);" d="M 83.807 204.901 C 78.992 88.006 196.348 58.66 254.114 129.256 C 351.002 101.628 379.674 187.922 378.196 191.051 C 517.533 235.899 461.673 370.04 382.813 382.457 L 121.094 382.458 C 3.327 355.918 31.489 237.213 83.807 204.901 Z"/>
  <path style="fill: rgb(255, 255, 255);" d="M 181.854 172.374 H 309.555 A 25 25 0 0 1 334.555 197.374 V 287.39 A 30 30 0 0 1 304.555 317.39 H 156.854 V 197.374 A 25 25 0 0 1 181.854 172.374 Z" bx:shape="rect 156.854 172.374 177.701 145.016 25 25 30 0 1@351a6a7b"/>
  <path style="fill: rgb(255, 251, 251);" d="M 219.136 327.509 H 323.271 A 12.4 12.354 0 0 1 335.671 339.863 V 339.863 A 12.4 12.354 0 0 1 323.271 352.217 H 219.136 V 327.509 Z" bx:shape="rect 219.136 327.509 116.535 24.708 0 12.4 12.4 0 1@5e48fac9"/>
  <path style="stroke-dashoffset: -50px; stroke-miterlimit: 1; stroke-width: 0px; fill: rgb(41, 55, 240);" transform="matrix(0.999998, 0.001773, 0, 1.000002, -17.05234, -34.280899)" d="M 157.627 234.733 H 218.711 A 26.023 26.023 0 0 1 244.734 260.756 V 373.758 A 16 16 0 0 1 228.734 389.758 H 157.627 A 16 16 0 0 1 141.627 373.758 V 250.733 A 16 16 0 0 1 157.627 234.733 Z" bx:shape="rect 141.627 234.733 103.107 155.025 16 26.023 16 16 1@18a953de"/>
  <rect style="fill: rgb(255, 255, 255); stroke-dashoffset: -50px; stroke-miterlimit: 1; stroke-width: 0px;" x="125.522" y="211.906" width="90.693" height="139.799" rx="16" ry="16"/>
  <ellipse style="fill: rgb(41, 55, 240);" cx="171.098" cy="331.032" rx="8" ry="8"/>
</svg>